# Blender v2.90.0 OBJ File: 'ermak 1.0.blend'
# www.blender.org
mtllib big-heal-pack-glass.mtl
o капсула_большой_аптечки.001_Цилиндр.011
v -0.088160 0.154392 0.243573
v -0.102048 0.183082 0.225935
v -0.094338 0.463882 0.235536
v -0.085737 0.183425 0.246090
v -0.115183 0.154392 0.199991
v -0.114999 0.487676 0.200399
v -0.122178 0.154392 0.166532
v -0.101280 0.154392 0.227134
v -0.110374 0.154392 0.209952
v -0.119584 0.154392 0.186326
v -0.038270 0.154392 0.275183
v -0.039335 0.487676 0.274807
v -0.066495 0.154392 0.261901
v -0.074392 0.154392 0.255456
v -0.049117 0.154392 0.271504
v -0.028620 0.154392 0.278678
v -0.009426 0.154392 0.282081
v -0.028484 0.487676 0.278706
v -0.009425 0.487676 0.282082
v -0.123379 0.154392 0.146917
v -0.123378 0.487676 0.146918
v -0.120670 0.487676 0.127077
v -0.116774 0.154392 0.111789
v -0.116068 0.180560 0.110019
v -0.111855 0.154392 0.100648
v -0.098617 0.154392 0.076494
v -0.098617 0.487676 0.076496
v -0.115555 0.154393 0.045147
v -0.120040 0.154392 0.030124
v -0.123379 0.154392 0.009794
v -0.120125 0.487676 0.029631
v -0.123378 0.487676 0.009795
v -0.099037 0.154392 0.078134
v -0.111149 0.154392 0.054585
v 0.099036 0.154392 0.078134
v -0.099037 0.487676 0.078134
v -0.120542 0.154392 0.126192
v -0.085736 0.461060 0.246092
v -0.101056 0.487676 0.227432
v -0.088160 0.487676 0.243573
v -0.119524 0.487676 0.186660
v -0.122157 0.487676 0.166748
v -0.102056 0.461060 0.225921
v -0.110838 0.487676 0.209028
v -0.065936 0.487676 0.262288
v -0.073657 0.487676 0.256060
v -0.048872 0.487676 0.271616
v -0.116432 0.487676 0.110766
v -0.112341 0.487676 0.101594
v -0.111192 0.487676 0.054501
v -0.115750 0.487676 0.044729
v -0.122448 0.154392 -0.009816
v -0.120066 0.154392 -0.030091
v -0.120126 0.487676 -0.029628
v -0.115553 0.154393 -0.045149
v -0.111099 0.154392 -0.054684
v -0.098616 0.154392 -0.077368
v -0.098617 0.487676 -0.077367
v -0.116775 0.154392 -0.111789
v -0.116068 0.180562 -0.110018
v -0.120562 0.154392 -0.126357
v -0.123379 0.154392 -0.146918
v -0.120670 0.487676 -0.127077
v -0.123378 0.487676 -0.146919
v -0.099036 0.154392 -0.075729
v -0.111919 0.154392 -0.100776
v 0.099036 0.154392 -0.075729
v -0.099036 0.487676 -0.075729
v -0.122178 0.154392 -0.166533
v -0.115140 0.154392 -0.200085
v -0.114999 0.487676 -0.200397
v -0.119584 0.154392 -0.186327
v -0.110376 0.154392 -0.209949
v -0.102054 0.182285 -0.225923
v -0.088160 0.154392 -0.243573
v -0.085932 0.181269 -0.245908
v -0.094335 0.463881 -0.235540
v -0.085737 0.458643 -0.246090
v -0.101280 0.154392 -0.227134
v -0.074376 0.154392 -0.255469
v -0.066497 0.154392 -0.261899
v -0.049115 0.154392 -0.271504
v -0.038431 0.154392 -0.275126
v -0.039333 0.487676 -0.274808
v -0.028484 0.154392 -0.278706
v -0.009425 0.154392 -0.282082
v -0.122423 0.487676 -0.010049
v -0.115805 0.487676 -0.044610
v -0.111459 0.487676 -0.053983
v -0.111978 0.487676 -0.100891
v -0.116067 0.461060 -0.110013
v -0.116775 0.487676 -0.111789
v -0.122155 0.487676 -0.166754
v -0.119525 0.487676 -0.186624
v -0.110760 0.487676 -0.209180
v -0.102055 0.461060 -0.225922
v -0.101055 0.487676 -0.227432
v -0.088160 0.487676 -0.243573
v -0.009426 0.487676 -0.282081
v -0.073691 0.487676 -0.256031
v -0.065776 0.487676 -0.262398
v -0.048928 0.487676 -0.271590
v -0.028620 0.487676 -0.278679
v 0.009446 0.154392 0.281115
v 0.028473 0.154392 0.278707
v 0.038346 0.154392 0.275154
v 0.039346 0.487676 0.274804
v 0.049157 0.154392 0.271490
v 0.065324 0.154392 0.262710
v 0.074377 0.154392 0.255468
v 0.066565 0.182003 0.261847
v 0.119545 0.154392 0.186599
v 0.087978 0.154392 0.243698
v 0.085746 0.185781 0.246085
v 0.094480 0.181009 0.235362
v 0.094595 0.487676 0.235224
v 0.100995 0.154392 0.227572
v 0.110742 0.154392 0.209221
v 0.102054 0.182290 0.225922
v 0.110408 0.487676 0.209883
v 0.115201 0.154392 0.199898
v 0.115007 0.487676 0.200374
v 0.122178 0.154392 0.166532
v 0.119581 0.487676 0.186335
v 0.120562 0.154392 0.126357
v 0.111873 0.154392 0.100683
v 0.098616 0.154392 0.076495
v 0.098617 0.487676 0.076497
v 0.123379 0.154392 0.146917
v 0.123378 0.487676 0.146918
v 0.120670 0.487676 0.127076
v 0.116775 0.154392 0.111789
v 0.116069 0.180395 0.110020
v 0.111588 0.154392 0.053726
v 0.111143 0.487677 0.054593
v 0.120021 0.154392 0.030246
v 0.115562 0.154394 0.045121
v 0.123379 0.154392 0.009794
v 0.120125 0.487676 0.029630
v 0.123378 0.487676 0.009795
v 0.099036 0.487676 0.078134
v 0.009604 0.487676 0.281097
v 0.028558 0.487676 0.278682
v 0.049219 0.487676 0.271493
v 0.065757 0.487676 0.262415
v 0.074127 0.487677 0.255669
v 0.085737 0.461060 0.246092
v 0.088160 0.487676 0.243573
v 0.102056 0.461060 0.225921
v 0.100995 0.487676 0.227572
v 0.122155 0.487676 0.166753
v 0.112492 0.487676 0.101891
v 0.116437 0.487675 0.110904
v 0.115893 0.487676 0.044310
v 0.120074 0.154392 -0.030007
v 0.111109 0.154391 -0.054666
v 0.098616 0.154392 -0.077368
v 0.098617 0.487676 -0.077367
v 0.122448 0.154392 -0.009816
v 0.120126 0.487676 -0.029628
v 0.115563 0.154394 -0.045118
v 0.112801 0.154392 -0.102489
v 0.111702 0.321038 -0.100351
v 0.120542 0.154392 -0.126192
v 0.116775 0.154392 -0.111789
v 0.116069 0.180395 -0.110020
v 0.123379 0.154392 -0.146918
v 0.120670 0.487676 -0.127077
v 0.123378 0.487676 -0.146919
v 0.099036 0.487676 -0.075729
v 0.119584 0.154392 -0.186326
v 0.009604 0.154392 -0.281097
v 0.028558 0.154392 -0.278681
v 0.009446 0.487676 -0.281114
v 0.028473 0.487676 -0.278706
v 0.049156 0.154392 -0.271491
v 0.074387 0.154392 -0.255459
v 0.065324 0.154392 -0.262710
v 0.066565 0.181998 -0.261847
v 0.038141 0.154392 -0.275226
v 0.039348 0.487676 -0.274802
v 0.110682 0.154392 -0.209340
v 0.100994 0.154392 -0.227572
v 0.110411 0.487676 -0.209878
v 0.102054 0.182286 -0.225923
v 0.122178 0.154392 -0.166533
v 0.115262 0.154392 -0.199747
v 0.115006 0.487676 -0.200376
v 0.088160 0.154392 -0.243573
v 0.093319 0.154392 -0.236908
v 0.085737 0.181009 -0.246091
v 0.085746 0.456287 -0.246085
v 0.094594 0.487676 -0.235225
v 0.111560 0.487676 -0.053783
v 0.122428 0.487676 -0.010016
v 0.115816 0.487676 -0.044500
v 0.112801 0.487676 -0.102489
v 0.116528 0.487676 -0.111130
v 0.049239 0.487676 -0.271493
v 0.074127 0.487677 -0.255668
v 0.065927 0.487675 -0.262297
v 0.101412 0.487676 -0.226952
v 0.122157 0.487676 -0.166748
v 0.119524 0.487676 -0.186661
v 0.088160 0.487676 -0.243573
vn -0.7773 -0.0002 0.6291
vn -0.9006 -0.0000 0.4347
vn -0.9519 0.0002 0.3066
vn -0.8838 -0.0041 0.4678
vn -0.1746 -0.0000 0.9846
vn -0.3213 0.0000 0.9470
vn -0.6533 -0.0111 0.7570
vn -0.9639 0.0003 -0.2661
vn -0.9148 -0.0026 -0.4039
vn -0.9868 -0.0000 0.1619
vn 0.9687 0.0000 0.2481
vn -0.8893 0.0000 0.4574
vn -0.6524 0.0123 0.7578
vn -0.7789 -0.0063 0.6271
vn -0.8774 0.0001 -0.4798
vn -0.9062 -0.0000 0.4228
vn -0.9605 -0.0002 0.2783
vn -0.9981 0.0000 0.0615
vn -0.9579 0.0002 -0.2871
vn -0.9908 -0.0000 0.1353
vn -0.9150 -0.0026 0.4034
vn -0.9005 -0.0000 -0.4349
vn -0.8838 -0.0042 -0.4678
vn -0.7751 0.0001 -0.6318
vn -0.7815 0.0106 -0.6238
vn -0.3386 -0.0000 -0.9409
vn -0.6376 -0.0001 -0.7704
vn -0.6533 -0.0116 -0.7570
vn -0.9932 -0.0000 -0.1166
vn -0.8765 0.0001 -0.4814
vn -0.9125 -0.0000 0.4090
vn -0.9655 0.0000 0.2604
vn -0.9690 -0.0093 0.2469
vn -0.9153 0.0025 0.4029
vn -0.9500 -0.0001 -0.3122
vn -0.1746 0.0000 -0.9846
vn -0.3180 -0.0001 -0.9481
vn -0.6524 0.0112 -0.7578
vn -0.7799 -0.0000 -0.6260
vn -0.7789 -0.0063 -0.6271
vn 0.6247 -0.0037 0.7809
vn 0.7769 0.0074 0.6295
vn 0.8871 -0.0000 0.4615
vn 0.8831 -0.0058 0.4691
vn 0.9908 -0.0000 -0.1353
vn 0.8893 -0.0000 0.4573
vn 0.9078 0.0001 0.4193
vn 0.9579 0.0002 0.2871
vn 0.0003 1.0000 -0.0000
vn -0.9687 0.0000 0.2482
vn -0.9687 0.0000 0.2481
vn 0.3383 -0.0000 0.9410
vn 0.3179 -0.0001 0.9481
vn 0.7751 0.0000 0.6318
vn 0.7920 -0.0144 0.6104
vn 0.9915 -0.0000 0.1303
vn 0.7801 -0.0000 0.6257
vn 0.7671 -0.0092 0.6415
vn 0.9674 -0.0004 -0.2532
vn 0.9932 -0.0000 -0.1168
vn 0.9640 0.0003 0.2661
vn 0.8893 -0.0000 0.4574
vn 0.3211 0.0000 -0.9470
vn 0.6247 -0.0037 -0.7809
vn 0.9519 0.0002 -0.3065
vn 0.8831 -0.0058 -0.4692
vn 0.7907 0.0141 -0.6120
vn 0.7825 0.0002 -0.6226
vn 0.9605 -0.0002 -0.2783
vn 0.9182 -0.0010 0.3961
vn 0.8847 0.0003 -0.4662
vn 0.7920 -0.0121 -0.6104
vn 0.6363 0.0000 -0.7714
vn 0.9981 0.0000 -0.0615
vn 0.0511 -0.0000 0.9987
vn 0.0512 0.0000 -0.9987
vn 0.9989 0.0000 -0.0479
vn -0.3392 0.0000 0.9407
vn -0.7793 -0.0093 0.6266
vn -0.1744 -0.0000 0.9847
vn -0.9908 -0.0000 -0.1353
vn -0.9908 0.0000 -0.1356
vn -0.8769 0.0000 -0.4806
vn -0.9674 0.0090 -0.2531
vn -0.9582 0.0002 0.2861
vn -0.9868 0.0000 0.1621
vn -0.9981 0.0000 0.0611
vn -0.7752 -0.0000 0.6317
vn -0.9914 0.0000 0.1305
vn -0.8871 0.0000 0.4616
vn -0.6301 0.0001 0.7765
vn -0.9007 -0.0000 0.4344
vn -0.9498 -0.0001 0.3129
vn -0.8830 0.0065 0.4693
vn -0.4817 -0.0001 0.8764
vn -0.6366 0.0000 0.7712
vn -0.3174 -0.0001 0.9483
vn -0.9127 -0.0001 -0.4085
vn -0.7798 0.0000 0.6260
vn -0.9679 -0.0005 -0.2514
vn -0.9061 -0.0000 0.4230
vn -0.9932 -0.0000 -0.1167
vn -0.8761 0.0000 -0.4821
vn -0.9643 0.0003 0.2648
vn -0.9907 0.0000 0.1357
vn -0.9678 0.0091 0.2516
vn -0.9516 0.0001 -0.3074
vn -0.3211 0.0000 -0.9471
vn -0.7783 -0.0001 -0.6279
vn -0.7782 0.0057 -0.6281
vn -0.9981 0.0000 -0.0611
vn -0.9066 -0.0000 -0.4220
vn -0.9914 0.0000 -0.1306
vn -0.9609 -0.0003 -0.2771
vn -0.9123 -0.0000 0.4095
vn -0.8871 0.0000 -0.4617
vn -0.7797 -0.0090 -0.6261
vn -0.9006 -0.0000 -0.4346
vn -0.8829 0.0065 -0.4695
vn -0.6295 0.0001 -0.7770
vn -0.1744 0.0000 -0.9847
vn -0.4813 -0.0001 -0.8765
vn -0.3398 -0.0001 -0.9405
vn -0.6365 0.0000 -0.7713
vn 0.0000 1.0000 0.0000
vn -0.9981 0.0000 -0.0616
vn 0.3386 -0.0000 0.9409
vn 0.3210 0.0000 0.9471
vn 0.4773 0.0060 0.8787
vn 0.7754 -0.0000 0.6315
vn 0.9012 -0.0000 0.4334
vn 0.9915 -0.0000 0.1301
vn 0.9507 0.0001 0.3101
vn 0.7786 0.0069 0.6275
vn 0.6543 -0.0110 0.7561
vn 0.7799 -0.0000 0.6259
vn 0.1260 0.0000 0.9920
vn 0.9643 0.0003 -0.2648
vn 0.8769 0.0000 -0.4806
vn 0.9907 0.0000 -0.1357
vn 0.9678 0.0092 -0.2516
vn 0.9149 -0.0026 -0.4037
vn 0.9868 -0.0000 0.1619
vn 0.9868 0.0000 0.1620
vn -0.7793 0.0081 0.6267
vn 0.9981 0.0000 0.0611
vn 0.6301 0.0001 0.7765
vn 0.4831 -0.0002 0.8756
vn 0.8869 -0.0000 0.4619
vn 0.6364 0.0000 0.7713
vn 0.8828 0.0061 0.4698
vn 0.9141 -0.0001 -0.4054
vn 0.6528 0.0122 0.7574
vn 0.8776 0.0001 -0.4795
vn 0.9167 0.0005 0.3995
vn 0.9609 -0.0003 0.2770
vn 0.9981 0.0000 0.0616
vn 0.9582 0.0002 -0.2860
vn 0.8761 0.0000 -0.4821
vn 0.9908 -0.0000 0.1353
vn 0.9908 0.0000 0.1356
vn 0.9674 0.0090 0.2530
vn 0.1260 -0.0000 -0.9920
vn 0.8892 0.0000 0.4574
vn 0.3385 -0.0000 -0.9410
vn 0.4773 0.0060 -0.8787
vn 0.9014 -0.0000 -0.4331
vn 0.8871 -0.0000 -0.4616
vn 0.7734 0.0001 -0.6340
vn 0.6366 -0.0000 -0.7712
vn 0.6533 -0.0121 -0.7570
vn 0.7724 0.0082 -0.6350
vn 0.9981 0.0000 -0.0611
vn 0.9076 -0.0000 -0.4198
vn 0.8767 0.0001 -0.4811
vn 0.9932 -0.0000 -0.1166
vn 0.0007 1.0000 -0.0003
vn 0.9120 0.0001 0.4102
vn 0.9679 -0.0005 0.2514
vn 0.6307 0.0001 -0.7761
vn 0.4837 -0.0002 -0.8752
vn 0.9914 0.0000 -0.1305
vn 0.3173 -0.0001 -0.9483
vn 0.9498 -0.0001 -0.3129
vn 0.6528 0.0104 -0.7574
vn 0.7717 -0.0005 -0.6360
vn 0.0517 0.0000 0.9987
vn 0.0517 -0.0000 -0.9987
vn -0.9989 0.0000 -0.0474
vn 0.9989 0.0000 -0.0474
vn -0.9988 0.0000 -0.0481
usemtl cell-small-heal-material
s off
f 4//1 3//1 2//1
f 9//2 6//2 5//2
f 6//3 10//3 5//3
f 2//4 9//4 8//4
f 17//5 18//5 16//5
f 12//6 15//6 11//6
f 14//7 4//7 1//7
f 22//8 24//8 37//8
f 24//9 25//9 23//9
f 31//10 32//10 29//10
f 27//11 33//11 26//11
f 36//12 34//12 33//12
f 38//13 46//13 40//13
f 3//14 39//14 43//14
f 49//15 27//15 25//15
f 50//16 51//16 28//16
f 51//17 31//17 28//17
f 42//18 21//18 7//18
f 54//19 55//19 53//19
f 63//20 64//20 61//20
f 68//12 66//12 65//12
f 66//21 60//21 59//21
f 73//22 70//22 71//22
f 73//23 74//23 79//23
f 78//24 76//24 77//24
f 76//25 75//25 79//25
f 85//26 83//26 84//26
f 80//27 76//27 78//27
f 76//28 80//28 75//28
f 87//29 54//29 52//29
f 89//30 58//30 56//30
f 90//31 91//31 60//31
f 91//32 63//32 60//32
f 92//33 63//33 91//33
f 91//34 90//34 92//34
f 94//35 71//35 72//35
f 99//36 85//36 103//36
f 102//37 84//37 82//37
f 100//38 78//38 98//38
f 96//39 77//39 74//39
f 97//40 77//40 96//40
f 110//41 111//41 109//41
f 113//42 115//42 114//42
f 120//43 119//43 118//43
f 118//44 119//44 117//44
f 131//45 130//45 125//45
f 135//46 35//46 134//46
f 137//47 135//47 134//47
f 139//48 137//48 136//48
f 112//49 35//49 127//49
f 35//50 128//50 127//50
f 141//51 128//51 35//51
f 107//52 143//52 105//52
f 144//53 107//53 108//53
f 116//54 147//54 114//54
f 116//55 148//55 147//55
f 151//56 124//56 123//56
f 149//57 116//57 119//57
f 150//58 116//58 149//58
f 153//59 131//59 133//59
f 160//60 159//60 155//60
f 168//61 166//61 164//61
f 163//62 67//62 162//62
f 170//51 158//51 67//51
f 181//63 176//63 180//63
f 179//64 177//64 178//64
f 188//65 171//65 187//65
f 185//66 182//66 183//66
f 190//67 189//67 191//67
f 193//68 185//68 190//68
f 196//69 160//69 161//69
f 198//70 197//70 163//70
f 202//71 184//71 185//71
f 205//72 193//72 192//72
f 192//73 177//73 200//73
f 203//74 169//74 186//74
f 104//75 19//75 17//75
f 174//76 86//76 99//76
f 195//77 140//77 159//77
f 12//78 11//78 16//78 18//78
f 40//79 39//79 3//79 38//79
f 17//80 19//80 18//80
f 21//81 22//81 37//81
f 20//82 21//82 37//82
f 25//83 27//83 26//83
f 37//84 24//84 23//84
f 28//85 31//85 29//85
f 29//86 32//86 30//86
f 27//11 36//11 33//11
f 7//87 21//87 20//87
f 4//88 38//88 3//88
f 7//89 10//89 41//89 42//89
f 9//90 2//90 43//90 44//90
f 14//91 13//91 45//91 46//91
f 9//92 44//92 6//92
f 6//93 41//93 10//93
f 43//94 39//94 44//94
f 45//95 13//95 15//95 47//95
f 38//96 4//96 14//96 46//96
f 12//97 47//97 15//97
f 24//98 48//98 49//98 25//98
f 3//99 43//99 2//99
f 22//100 48//100 24//100
f 36//12 50//12 34//12
f 34//101 50//101 28//101
f 52//102 54//102 53//102
f 56//103 58//103 57//103
f 60//104 63//104 61//104
f 61//105 64//105 62//105
f 59//106 60//106 61//106
f 58//11 68//11 65//11
f 57//11 58//11 65//11
f 72//107 71//107 70//107
f 82//108 84//108 83//108
f 74//109 77//109 76//109
f 79//110 74//110 76//110
f 62//111 64//111 69//111
f 55//112 88//112 89//112 56//112
f 72//113 69//113 93//113 94//113
f 54//114 88//114 55//114
f 68//12 90//12 66//12
f 66//115 90//115 60//115
f 74//116 73//116 95//116 96//116
f 77//117 97//117 98//117 78//117
f 95//118 73//118 71//118
f 95//119 97//119 96//119
f 81//120 80//120 100//120 101//120
f 99//121 86//121 85//121
f 81//122 101//122 102//122 82//122
f 103//123 85//123 84//123
f 100//124 80//124 78//124
f 97//125 100//125 98//125
f 64//126 93//126 69//126
f 106//127 107//127 105//127
f 108//128 107//128 106//128
f 109//129 111//129 108//129
f 115//130 116//130 114//130
f 120//131 118//131 121//131 122//131
f 123//132 124//132 112//132
f 121//133 112//133 124//133 122//133
f 115//134 113//134 117//134 119//134
f 110//135 113//135 114//135
f 119//136 116//136 115//136
f 142//137 104//137 105//137 143//137
f 133//138 131//138 125//138
f 127//139 128//139 126//139
f 125//140 130//140 129//140
f 132//141 133//141 125//141
f 133//142 132//142 126//142
f 140//143 139//143 136//143
f 138//144 140//144 136//144
f 2//145 8//145 1//145 4//145
f 135//46 141//46 35//46
f 129//146 130//146 123//146
f 111//147 110//147 146//147 145//147
f 144//148 108//148 111//148 145//148
f 120//149 149//149 119//149
f 146//150 110//150 114//150 147//150
f 120//151 150//151 149//151
f 126//152 152//152 153//152 133//152
f 147//153 148//153 146//153
f 128//154 152//154 126//154
f 166//155 163//155 162//155 165//155
f 137//47 154//47 135//47
f 139//156 154//156 137//156
f 130//157 151//157 123//157
f 161//158 160//158 155//158
f 157//159 158//159 156//159
f 169//160 168//160 164//160
f 167//161 169//161 164//161
f 164//162 166//162 165//162
f 172//163 174//163 175//163 173//163
f 163//164 170//164 67//164
f 67//51 158//51 157//51
f 173//165 175//165 181//165 180//165
f 176//166 179//166 178//166
f 182//167 184//167 188//167 187//167
f 185//168 184//168 182//168
f 191//169 192//169 193//169 190//169
f 192//170 191//170 177//170
f 191//171 189//171 177//171
f 190//172 185//172 183//172
f 186//173 169//173 167//173
f 156//174 194//174 196//174 161//174
f 158//175 194//175 156//175
f 160//176 195//176 159//176
f 196//177 194//177 160//177
f 166//178 198//178 163//178
f 168//179 198//179 166//179
f 163//62 197//62 170//62
f 177//180 179//180 201//180 200//180
f 176//181 199//181 201//181 179//181
f 186//182 171//182 204//182 203//182
f 181//183 199//183 176//183
f 188//184 204//184 171//184
f 200//185 205//185 192//185
f 193//186 202//186 185//186
f 104//187 142//187 19//187
f 174//188 172//188 86//188
f 30//189 32//189 52//189
f 159//190 140//190 138//190
f 32//191 87//191 52//191
