# Blender v2.90.0 OBJ File: 'ermak 1.0.blend'
# www.blender.org
o пуля_винтовки_Цилиндр.017
v 0.002669 0.000983 -0.126299
v 0.002908 0.002496 -0.123682
v 0.016870 0.008969 -0.059610
v 0.013581 0.012239 -0.063457
v 0.007625 0.024050 -0.012439
v 0.012505 0.021806 -0.013574
v 0.024743 0.002336 -0.015299
v 0.023696 0.007758 -0.014636
v 0.017634 0.017696 -0.014216
v 0.020404 0.001256 -0.053165
v 0.017896 0.005334 -0.062337
v 0.009081 0.016153 -0.061608
v 0.009856 0.016413 -0.057970
v 0.001176 0.001995 -0.125812
v 0.004775 0.001511 -0.121184
v 0.003612 0.001324 -0.124997
v 0.001459 0.015317 -0.082776
v 0.001612 0.019910 -0.058619
v 0.022003 0.011054 -0.014764
v 0.004967 0.000457 -0.121495
v 0.003781 0.000089 -0.125182
v 0.018353 0.001666 -0.064348
v 0.024602 0.005044 -0.008686
v 0.023647 0.006927 -0.015284
v 0.024312 0.003272 -0.016173
v 0.002319 0.004541 -0.119138
v 0.001742 0.003209 -0.123209
v 0.001858 0.006544 -0.114307
v 0.001256 0.005354 -0.118131
v 0.000283 0.006220 -0.116583
v 0.014666 0.011838 -0.060946
v 0.006422 0.023169 -0.021035
v 0.003245 0.023682 -0.022503
v 0.016728 0.008050 -0.062572
v 0.003848 0.002399 -0.122259
v -0.002669 0.000983 -0.126299
v -0.002908 0.002496 -0.123682
v -0.016870 0.008969 -0.059610
v -0.013581 0.012239 -0.063457
v -0.007625 0.024050 -0.012439
v -0.012505 0.021806 -0.013574
v -0.024743 0.002336 -0.015299
v -0.023696 0.007758 -0.014636
v -0.017634 0.017696 -0.014216
v -0.020404 0.001256 -0.053165
v -0.017896 0.005334 -0.062337
v -0.009081 0.016153 -0.061608
v -0.009856 0.016413 -0.057970
v -0.001176 0.001995 -0.125812
v -0.004775 0.001511 -0.121184
v -0.003612 0.001324 -0.124997
v -0.001459 0.015317 -0.082776
v -0.001612 0.019910 -0.058619
v -0.022003 0.011054 -0.014764
v -0.004967 0.000457 -0.121495
v -0.003781 0.000089 -0.125182
v -0.018353 0.001666 -0.064348
v -0.024602 0.005044 -0.008686
v -0.023647 0.006927 -0.015284
v -0.024312 0.003272 -0.016173
v -0.002319 0.004541 -0.119138
v -0.001742 0.003209 -0.123209
v -0.001858 0.006544 -0.114307
v -0.001256 0.005354 -0.118131
v -0.000283 0.006220 -0.116583
v -0.014666 0.011838 -0.060946
v -0.006422 0.023169 -0.021035
v -0.003245 0.023682 -0.022503
v -0.016728 0.008050 -0.062572
v -0.003848 0.002399 -0.122259
v 0.000000 0.002887 -0.124882
v 0.000000 0.022985 -0.037507
v 0.000000 0.005820 -0.117479
v 0.000000 0.006522 -0.115854
v 0.000000 0.015772 -0.082336
v 0.000000 0.024967 -0.018280
v 0.002669 -0.000983 -0.126299
v 0.002908 -0.002496 -0.123682
v 0.016870 -0.008969 -0.059610
v 0.013581 -0.012239 -0.063457
v 0.007625 -0.024050 -0.012439
v 0.012505 -0.021806 -0.013574
v 0.024743 -0.002336 -0.015299
v 0.023696 -0.007758 -0.014636
v 0.017634 -0.017696 -0.014216
v 0.020404 -0.001256 -0.053165
v 0.017896 -0.005334 -0.062337
v 0.009081 -0.016153 -0.061608
v 0.009856 -0.016413 -0.057970
v 0.001176 -0.001995 -0.125812
v 0.004775 -0.001511 -0.121184
v 0.003612 -0.001324 -0.124997
v 0.001459 -0.015317 -0.082776
v 0.001612 -0.019910 -0.058619
v 0.022003 -0.011054 -0.014764
v 0.004967 -0.000457 -0.121495
v 0.003781 -0.000089 -0.125182
v 0.018353 -0.001666 -0.064348
v 0.024602 -0.005044 -0.008686
v 0.023647 -0.006927 -0.015284
v 0.024312 -0.003272 -0.016173
v 0.002319 -0.004541 -0.119138
v 0.001742 -0.003209 -0.123209
v 0.001858 -0.006544 -0.114307
v 0.001256 -0.005354 -0.118131
v 0.000283 -0.006220 -0.116583
v 0.014666 -0.011838 -0.060946
v 0.006422 -0.023169 -0.021035
v 0.003245 -0.023682 -0.022503
v 0.016728 -0.008050 -0.062572
v 0.003848 -0.002399 -0.122259
v -0.002669 -0.000983 -0.126299
v -0.002908 -0.002496 -0.123682
v -0.016870 -0.008969 -0.059610
v -0.013581 -0.012239 -0.063457
v -0.007625 -0.024050 -0.012439
v -0.012505 -0.021806 -0.013574
v -0.024743 -0.002336 -0.015299
v -0.023696 -0.007758 -0.014636
v -0.017634 -0.017696 -0.014216
v -0.020404 -0.001256 -0.053165
v -0.017896 -0.005334 -0.062337
v -0.009081 -0.016153 -0.061608
v -0.009856 -0.016413 -0.057970
v -0.001176 -0.001995 -0.125812
v -0.004775 -0.001511 -0.121184
v -0.003612 -0.001324 -0.124997
v -0.001459 -0.015317 -0.082776
v -0.001612 -0.019910 -0.058619
v -0.022003 -0.011054 -0.014764
v -0.004967 -0.000457 -0.121495
v -0.003781 -0.000089 -0.125182
v -0.018353 -0.001666 -0.064348
v -0.024602 -0.005044 -0.008686
v -0.023647 -0.006927 -0.015284
v -0.024312 -0.003272 -0.016173
v -0.002319 -0.004541 -0.119138
v -0.001742 -0.003209 -0.123209
v -0.001858 -0.006544 -0.114307
v -0.001256 -0.005354 -0.118131
v -0.000283 -0.006220 -0.116583
v -0.014666 -0.011838 -0.060946
v -0.006422 -0.023169 -0.021035
v -0.003245 -0.023682 -0.022503
v -0.016728 -0.008050 -0.062572
v -0.003848 -0.002399 -0.122259
v 0.000000 -0.002887 -0.124882
v 0.000000 -0.022985 -0.037507
v 0.000000 -0.005820 -0.117479
v 0.000000 -0.006522 -0.115854
v 0.000000 -0.015772 -0.082336
v 0.000000 -0.024967 -0.018280
v 0.002853 0.000000 -0.126031
v 0.000827 0.000000 -0.126468
v 0.020299 0.000000 -0.053659
v 0.005138 0.000000 -0.120664
v 0.003814 0.000000 -0.125015
v 0.003648 0.000000 -0.125296
v 0.000000 0.000000 -0.126323
v -0.002853 0.000000 -0.126031
v -0.000827 0.000000 -0.126468
v -0.020299 0.000000 -0.053659
v -0.005138 0.000000 -0.120664
v -0.003814 0.000000 -0.125015
v -0.003648 0.000000 -0.125296
v 0.017653 0.017707 -0.003143
v -0.007622 0.024051 -0.003143
v -0.012568 0.021777 -0.003143
v 0.021936 0.011338 -0.003143
v 0.023748 0.007729 -0.003143
v -0.024799 0.002364 -0.003143
v -0.023748 -0.007729 -0.003143
v -0.021936 -0.011338 -0.003143
v 0.000000 0.024983 -0.003143
v 0.007622 0.024051 -0.003143
v 0.012568 0.021777 -0.003143
v -0.017653 0.017707 -0.003143
v -0.021936 0.011338 -0.003143
v -0.023748 0.007729 -0.003143
v 0.024799 -0.002364 -0.003143
v 0.017653 -0.017707 -0.003143
v 0.012568 -0.021777 -0.003143
v 0.007622 -0.024051 -0.003143
v 0.000000 -0.024983 -0.003143
v -0.007622 -0.024051 -0.003143
v 0.024799 0.002364 -0.003143
v 0.023748 -0.007729 -0.003143
v 0.021936 -0.011338 -0.003143
v -0.024799 -0.002364 -0.003143
v -0.017653 -0.017707 -0.003143
v -0.012568 -0.021777 -0.003143
vt 0.005938 0.837016
vt 0.004069 0.837140
vt 0.004065 0.835286
vt 0.006235 0.834842
vt 0.006879 0.815056
vt 0.004065 0.811862
vt 0.008166 0.809065
vt 0.012341 0.810830
vt 0.014155 0.818711
vt 0.008532 0.820959
vt 0.024211 0.815769
vt 0.015295 0.825229
vt 0.021473 0.813240
vt 0.698430 0.732402
vt 0.698371 0.747187
vt 0.675312 0.745908
vt 0.675691 0.729334
vt 0.651063 0.743544
vt 0.651237 0.725925
vt 0.850014 0.874257
vt 0.863404 0.878348
vt 0.880421 0.979533
vt 0.876623 0.978825
vt 0.841295 0.874610
vt 0.709523 0.544524
vt 0.668208 0.644214
vt 0.663162 0.647986
vt 0.652292 0.648417
vt 0.652665 0.643145
vt 0.705051 0.545715
vt 0.710273 0.539513
vt 0.629407 0.721114
vt 0.629704 0.739768
vt 0.014768 0.807046
vt 0.003740 0.806123
vt 0.006362 0.802080
vt 0.011419 0.804500
vt 0.686309 0.655397
vt 0.717081 0.550756
vt 0.722134 0.552829
vt 0.719761 0.559646
vt 0.713814 0.542301
vt 0.719299 0.543462
vt 0.730812 0.616054
vt 0.724082 0.615108
vt 0.726788 0.555798
vt 0.728155 0.557134
vt 0.732731 0.691730
vt 0.724648 0.656318
vt 0.860230 0.795749
vt 0.863789 0.859235
vt 0.840593 0.793636
vt 0.843878 0.794990
vt 0.851212 0.784498
vt 0.857085 0.797143
vt 0.689754 0.649437
vt 0.830588 0.794041
vt 0.832415 0.775703
vt 0.843416 0.775515
vt 0.838041 0.869508
vt 0.044357 0.796252
vt 0.042186 0.796696
vt 0.042484 0.794522
vt 0.044352 0.794398
vt 0.733202 0.723514
vt 0.718177 0.716083
vt 0.703656 0.718171
vt 0.003518 0.829476
vt 0.002511 0.823557
vt 0.026128 0.832837
vt 0.020065 0.831613
vt 0.021942 0.825904
vt 0.030009 0.827151
vt 0.032076 0.831152
vt 0.029541 0.835396
vt 0.026949 0.818298
vt 0.767297 0.732095
vt 0.788634 0.728830
vt 0.788825 0.745402
vt 0.767206 0.746880
vt 0.810496 0.725215
vt 0.810496 0.742832
vt 0.935131 0.640114
vt 0.946823 0.641291
vt 0.912170 0.741247
vt 0.907510 0.741583
vt 0.918835 0.642882
vt 0.915744 0.743539
vt 0.910810 0.747985
vt 0.951011 0.636535
vt 0.962926 0.640076
vt 0.964242 0.644721
vt 0.962536 0.562261
vt 0.963722 0.543817
vt 0.990430 0.546601
vt 0.990430 0.564235
vt 0.033654 0.824492
vt 0.905329 0.748125
vt 0.795622 0.647395
vt 0.775324 0.654999
vt 0.790870 0.643667
vt 0.738028 0.550662
vt 0.736539 0.559571
vt 0.733475 0.552779
vt 0.740075 0.542184
vt 0.735034 0.543392
vt 0.729343 0.555786
vt 0.737261 0.615049
vt 0.739209 0.656253
vt 0.924542 0.561121
vt 0.928564 0.562806
vt 0.936638 0.550801
vt 0.944712 0.561945
vt 0.948475 0.560921
vt 0.917875 0.623869
vt 0.771773 0.649071
vt 0.948308 0.542598
vt 0.744281 0.544369
vt 0.761654 0.717912
vt 0.747482 0.715953
vt 0.017864 0.837740
vt 0.011830 0.837155
vt 0.036451 0.827624
vt 0.036286 0.826923
vt 0.036834 0.827430
vt 0.904940 0.747836
vt 0.905528 0.740139
vt 0.879050 0.797399
vt 0.873908 0.860123
vt 0.868934 0.860541
vt 0.912172 0.624660
vt 0.011587 0.804108
vt 0.012136 0.804615
vt 0.882129 0.978247
vt 0.883648 0.986165
vt 0.883311 0.986422
vt 0.903501 0.560909
vt 0.903335 0.541529
vt 0.924632 0.541743
vt 0.862977 0.776562
vt 0.882026 0.778232
vt 0.022294 0.798701
vt 0.028356 0.799925
vt 0.026480 0.805634
vt 0.018413 0.804387
vt 0.016345 0.800386
vt 0.018881 0.796142
vt 0.033126 0.806310
vt 0.744672 0.969166
vt 0.764643 0.965430
vt 0.764756 0.981953
vt 0.744528 0.983913
vt 0.981763 0.811444
vt 0.955051 0.806861
vt 0.957763 0.789422
vt 0.984072 0.794965
vt 0.892986 0.878025
vt 0.906145 0.880297
vt 0.888798 0.979893
vt 0.884100 0.979856
vt 0.876829 0.879525
vt 0.893916 0.982647
vt 0.889380 0.986768
vt 0.910294 0.875845
vt 0.925824 0.880741
vt 0.928939 0.885710
vt 0.919641 0.801850
vt 0.923754 0.783713
vt 0.884031 0.986486
vt 0.954359 0.881557
vt 0.706943 0.787060
vt 0.706418 0.796127
vt 0.702840 0.789299
vt 0.030558 0.793798
vt 0.705059 0.853280
vt 0.698144 0.793811
vt 0.699174 0.792426
vt 0.711205 0.852151
vt 0.715215 0.893587
vt 0.710192 0.929307
vt 0.883448 0.799454
vt 0.891849 0.788062
vt 0.899684 0.799884
vt 0.903096 0.799117
vt 0.984363 0.890470
vt 0.960261 0.926994
vt 0.916441 0.973202
vt 0.953935 0.887817
vt 0.905685 0.780976
vt 0.906289 0.979726
vt 0.895793 0.985680
vt 0.906562 0.623756
vt 0.745542 0.885666
vt 0.749150 0.891550
vt 0.738726 0.955029
vt 0.724999 0.953315
vt 0.711507 0.961160
vt 0.036591 0.794383
vt 0.041542 0.816482
vt 0.044357 0.819676
vt 0.040255 0.822474
vt 0.036081 0.820709
vt 0.034267 0.812827
vt 0.039889 0.810579
vt 0.676717 0.970437
vt 0.676605 0.985184
vt 0.652748 0.984049
vt 0.653197 0.967515
vt 0.626846 0.981703
vt 0.627076 0.964129
vt 0.887087 0.639631
vt 0.903826 0.642731
vt 0.903397 0.741542
vt 0.898557 0.741110
vt 0.874320 0.640562
vt 0.894140 0.743322
vt 0.854007 0.643614
vt 0.856297 0.639005
vt 0.870231 0.635723
vt 0.898884 0.747866
vt 0.862973 0.561261
vt 0.831041 0.562633
vt 0.830943 0.544998
vt 0.861603 0.542791
vt 0.904524 0.748117
vt 0.636272 0.885760
vt 0.641461 0.881959
vt 0.661315 0.893193
vt 0.686274 0.787446
vt 0.691649 0.789509
vt 0.689862 0.796436
vt 0.682084 0.778896
vt 0.687840 0.780034
vt 0.698200 0.852394
vt 0.696652 0.792474
vt 0.700847 0.893856
vt 0.878595 0.560219
vt 0.882320 0.561318
vt 0.891206 0.550345
vt 0.899090 0.562510
vt 0.664611 0.887181
vt 0.878690 0.541898
vt 0.677795 0.781165
vt 0.696082 0.953856
vt 0.681497 0.956100
vt 0.689429 0.775032
vt 0.695369 0.777016
vt 0.697607 0.790756
vt 0.037003 0.827038
vt 0.011971 0.803915
vt 0.711310 0.985183
vt 0.733084 0.747599
vt 0.551738 0.331660
vt 0.551067 0.331529
vt 0.550476 0.331529
vt 0.549806 0.331660
vt 0.549354 0.331887
vt 0.548558 0.332422
vt 0.548050 0.333058
vt 0.547765 0.333676
vt 0.547649 0.334629
vt 0.547765 0.335581
vt 0.548050 0.336200
vt 0.548558 0.336835
vt 0.549354 0.337371
vt 0.549806 0.337597
vt 0.550476 0.337729
vt 0.551067 0.337729
vt 0.551738 0.337597
vt 0.552189 0.337371
vt 0.552985 0.336835
vt 0.553494 0.336200
vt 0.553778 0.335581
vt 0.553895 0.334629
vt 0.553778 0.333676
vt 0.553494 0.333058
vt 0.552985 0.332422
vt 0.552189 0.331887
vn 0.0000 0.9182 -0.3961
vn 0.4099 0.7920 -0.4525
vn -0.2155 0.3707 -0.9034
vn 0.4177 0.9086 0.0000
vn 0.6251 0.7806 -0.0017
vn 0.9297 0.2908 -0.2262
vn 0.8012 0.5540 -0.2262
vn 0.8326 0.5539 -0.0054
vn 0.2053 -0.2216 -0.9533
vn 0.9279 0.2129 -0.3062
vn 0.6243 0.7696 -0.1341
vn 0.3580 0.8741 -0.3283
vn 0.3893 0.8578 -0.3357
vn 0.2130 0.9409 -0.2633
vn -0.0499 0.9845 -0.1684
vn 0.9621 0.2431 -0.1235
vn 0.4719 0.8578 -0.2038
vn 0.8917 0.4526 -0.0044
vn 0.6049 0.7638 -0.2250
vn 0.8213 0.5575 -0.1210
vn 0.9065 0.4025 -0.1276
vn 0.0000 -0.9182 -0.3961
vn 0.3491 0.9285 -0.1266
vn 0.2132 0.9014 -0.3769
vn -0.4099 0.7920 -0.4525
vn 0.2155 0.3707 -0.9034
vn -0.4177 0.9086 0.0000
vn -0.6251 0.7806 -0.0017
vn -0.9297 0.2908 -0.2262
vn -0.8012 0.5540 -0.2262
vn -0.8326 0.5539 -0.0054
vn -0.2053 -0.2216 -0.9533
vn -0.9279 0.2129 -0.3062
vn -0.6243 0.7696 -0.1341
vn -0.3580 0.8741 -0.3283
vn -0.3893 0.8578 -0.3357
vn -0.2130 0.9409 -0.2633
vn 0.0499 0.9845 -0.1684
vn -0.9621 0.2431 -0.1235
vn -0.4719 0.8578 -0.2038
vn -0.8917 0.4526 -0.0044
vn -0.6049 0.7638 -0.2250
vn -0.8213 0.5575 -0.1210
vn -0.9065 0.4025 -0.1276
vn -0.3491 0.9285 -0.1266
vn -0.2132 0.9014 -0.3769
vn -0.7272 -0.5360 -0.4288
vn -0.9426 -0.1720 -0.2864
vn 0.9934 0.0000 -0.1143
vn -0.9547 -0.2072 -0.2134
vn -0.7404 0.0885 -0.6663
vn 0.7272 -0.5360 -0.4288
vn 0.9426 -0.1720 -0.2864
vn -1.0000 0.0000 -0.0046
vn 1.0000 -0.0000 -0.0046
vn 0.9547 -0.2072 -0.2134
vn 0.7404 0.0885 -0.6663
vn 0.4099 -0.7920 -0.4525
vn -0.2155 -0.3707 -0.9034
vn 0.4177 -0.9086 0.0000
vn 0.6251 -0.7806 -0.0017
vn 0.9297 -0.2908 -0.2262
vn 0.8012 -0.5540 -0.2262
vn 0.8326 -0.5539 -0.0054
vn 0.2053 0.2216 -0.9533
vn 0.9279 -0.2129 -0.3062
vn 0.6243 -0.7696 -0.1341
vn 0.3580 -0.8741 -0.3283
vn 0.3893 -0.8578 -0.3357
vn 0.2130 -0.9409 -0.2633
vn -0.0499 -0.9845 -0.1684
vn 0.9621 -0.2431 -0.1235
vn 0.4719 -0.8578 -0.2038
vn 0.8917 -0.4526 -0.0044
vn 0.6049 -0.7638 -0.2250
vn 0.8213 -0.5575 -0.1210
vn 0.9065 -0.4025 -0.1276
vn -0.9934 0.0000 -0.1143
vn 0.3491 -0.9285 -0.1266
vn 0.2132 -0.9014 -0.3769
vn -0.4099 -0.7920 -0.4525
vn 0.2155 -0.3707 -0.9034
vn -0.4177 -0.9086 0.0000
vn -0.6251 -0.7806 -0.0017
vn -0.9297 -0.2908 -0.2262
vn -0.8012 -0.5540 -0.2262
vn -0.8326 -0.5539 -0.0054
vn -0.2053 0.2216 -0.9533
vn -0.9279 -0.2129 -0.3062
vn -0.6243 -0.7696 -0.1341
vn -0.3580 -0.8741 -0.3283
vn -0.3893 -0.8578 -0.3357
vn -0.2130 -0.9409 -0.2633
vn 0.0499 -0.9845 -0.1684
vn -0.9621 -0.2431 -0.1235
vn -0.4719 -0.8578 -0.2038
vn -0.8917 -0.4526 -0.0044
vn -0.6049 -0.7638 -0.2250
vn -0.8213 -0.5575 -0.1210
vn -0.9065 -0.4025 -0.1276
vn -0.3491 -0.9285 -0.1266
vn -0.2132 -0.9014 -0.3769
vn -0.7272 0.5360 -0.4288
vn -0.9426 0.1720 -0.2864
vn -0.9547 0.2072 -0.2134
vn -0.7404 -0.0885 -0.6663
vn 0.7272 0.5360 -0.4288
vn 0.9426 0.1720 -0.2864
vn 0.9547 0.2072 -0.2134
vn 0.7404 -0.0885 -0.6663
vn 0.1493 -0.9880 -0.0389
vn 0.1493 0.9880 -0.0389
vn 0.9814 0.1921 -0.0039
vn 0.9814 -0.1921 -0.0039
vn -0.1493 0.9880 -0.0389
vn -0.9814 -0.1921 -0.0039
vn -0.1493 -0.9880 -0.0389
vn -0.0000 0.0000 1.0000
vn -0.9814 0.1921 -0.0039
s off
f 65/1/1 74/2/1 30/3/1 73/4/1
f 2/5/2 35/6/2 16/7/2 1/8/2 14/9/2 27/10/2
f 159/11/3 71/12/3 14/9/3 1/8/3 154/13/3
f 5/14/4 175/15/4 176/16/4 6/17/4
f 6/17/5 176/16/5 166/18/5 9/19/5
f 11/20/6 22/21/6 20/22/6 15/23/6 34/24/6
f 35/25/7 4/26/7 31/27/7 3/28/7 34/29/7 15/30/7 16/31/7
f 19/32/8 9/19/8 166/18/8 169/33/8
f 154/13/9 1/8/9 153/34/9
f 15/35/10 20/36/10 21/37/10 16/7/10
f 31/27/11 4/26/11 13/38/11 6/17/11 9/19/11
f 26/39/12 29/40/12 28/41/12
f 2/42/13 27/43/13 26/39/13
f 75/44/14 17/45/14 28/41/14 29/40/14 30/46/14 74/47/14
f 75/44/15 72/48/15 18/49/15 17/45/15
f 7/50/16 10/51/16 22/21/16 11/20/16 8/52/16 24/53/16 23/54/16 25/55/16
f 18/49/17 12/56/17 28/41/17 17/45/17
f 8/52/18 19/57/18 169/58/18 170/59/18
f 12/56/19 13/38/19 4/26/19 35/25/19 2/42/19 26/39/19 28/41/19
f 31/27/20 9/19/20 19/32/20 3/28/20
f 19/57/21 8/52/21 11/20/21 34/24/21 3/60/21
f 141/61/22 149/62/22 106/63/22 150/64/22
f 18/49/23 72/48/23 76/65/23 33/66/23 32/67/23 5/14/23 6/17/23 13/38/23 12/56/23
f 27/10/24 14/9/24 71/12/24 73/4/24 30/3/24 29/68/24 26/69/24
f 37/70/25 62/71/25 49/72/25 36/73/25 51/74/25 70/75/25
f 161/76/26 36/73/26 49/72/26 71/12/26 159/11/26
f 40/77/27 41/78/27 168/79/27 167/80/27
f 41/78/28 44/81/28 177/82/28 168/79/28
f 46/83/29 69/84/29 50/85/29 55/86/29 57/87/29
f 70/88/30 51/89/30 50/85/30 69/84/30 38/90/30 66/91/30 39/92/30
f 54/93/31 178/94/31 177/95/31 44/96/31
f 161/76/32 160/97/32 36/73/32
f 50/85/33 51/89/33 56/98/33 55/86/33
f 66/99/34 44/81/34 41/78/34 48/100/34 39/101/34
f 61/102/35 63/103/35 64/104/35
f 37/105/36 61/102/36 62/106/36
f 75/44/37 74/47/37 65/107/37 64/104/37 63/103/37 52/108/37
f 75/44/38 52/108/38 53/109/38 72/48/38
f 42/110/39 60/111/39 58/112/39 59/113/39 43/114/39 46/83/39 57/87/39 45/115/39
f 53/109/40 52/108/40 63/103/40 47/116/40
f 43/114/41 179/117/41 178/94/41 54/93/41
f 47/116/42 63/103/42 61/102/42 37/105/42 70/118/42 39/101/42 48/100/42
f 66/91/43 38/90/43 54/93/43 44/96/43
f 54/93/44 38/90/44 69/84/44 46/83/44 43/114/44
f 53/109/45 47/116/45 48/100/45 41/78/45 40/77/45 67/119/45 68/120/45 76/65/45 72/48/45
f 62/71/46 61/121/46 64/122/46 65/1/46 73/4/46 71/12/46 49/72/46
f 56/123/47 165/124/47 164/125/47
f 55/86/48 56/98/48 164/126/48 163/127/48
f 83/128/49 86/129/49 155/130/49 10/51/49 7/50/49
f 45/115/50 57/87/50 55/86/50 163/127/50 162/131/50
f 51/74/51 36/73/51 160/97/51 165/124/51 56/123/51
f 21/37/52 157/132/52 158/133/52
f 20/22/53 156/134/53 157/135/53 21/136/53
f 118/137/54 189/138/54 171/139/54 42/110/54
f 83/128/55 7/50/55 186/140/55 180/141/55
f 10/51/56 155/130/56 156/134/56 20/22/56 22/21/56
f 16/7/57 21/37/57 158/133/57 153/34/57 1/8/57
f 78/142/58 103/143/58 90/144/58 77/145/58 92/146/58 111/147/58
f 159/11/59 154/13/59 77/145/59 90/144/59 147/148/59
f 81/149/60 82/150/60 182/151/60 183/152/60
f 82/153/61 85/154/61 181/155/61 182/156/61
f 87/157/62 110/158/62 91/159/62 96/160/62 98/161/62
f 111/162/63 92/163/63 91/159/63 110/158/63 79/164/63 107/165/63 80/166/63
f 95/167/64 188/168/64 181/155/64 85/154/64
f 154/13/65 153/34/65 77/145/65
f 91/159/66 92/163/66 97/169/66 96/160/66
f 107/165/67 85/154/67 82/153/67 89/170/67 80/166/67
f 102/171/68 104/172/68 105/173/68
f 78/142/69 102/174/69 103/143/69
f 151/175/70 150/176/70 106/177/70 105/173/70 104/172/70 93/178/70
f 151/175/71 93/178/71 94/179/71 148/180/71
f 83/128/72 101/181/72 99/182/72 100/183/72 84/184/72 87/157/72 98/161/72 86/129/72
f 94/185/73 93/186/73 104/187/73 88/188/73
f 84/184/74 187/189/74 188/168/74 95/167/74
f 88/188/75 104/187/75 102/190/75 78/191/75 111/162/75 80/166/75 89/170/75
f 107/165/76 79/164/76 95/167/76 85/154/76
f 95/167/77 79/164/77 110/158/77 87/157/77 84/184/77
f 118/137/78 42/110/78 45/115/78 162/131/78 121/192/78
f 94/179/79 88/193/79 89/194/79 82/150/79 81/149/79 108/195/79 109/196/79 152/197/79 148/180/79
f 103/143/80 102/174/80 105/198/80 106/63/80 149/62/80 147/148/80 90/144/80
f 113/199/81 146/200/81 127/201/81 112/202/81 125/203/81 138/204/81
f 161/76/82 159/11/82 147/148/82 125/203/82 112/202/82
f 116/205/83 185/206/83 191/207/83 117/208/83
f 117/208/84 191/207/84 190/209/84 120/210/84
f 122/211/85 133/212/85 131/213/85 126/214/85 145/215/85
f 146/216/86 115/217/86 142/218/86 114/219/86 145/215/86 126/214/86 127/220/86
f 130/221/87 120/222/87 190/223/87 173/224/87
f 161/76/88 112/202/88 160/97/88
f 126/214/89 131/213/89 132/225/89 127/220/89
f 142/226/90 115/227/90 124/228/90 117/208/90 120/210/90
f 137/229/91 140/230/91 139/231/91
f 113/232/92 138/233/92 137/229/92
f 151/175/93 128/234/93 139/231/93 140/230/93 141/235/93 150/176/93
f 151/175/94 148/180/94 129/236/94 128/234/94
f 118/137/95 121/192/95 133/212/95 122/211/95 119/237/95 135/238/95 134/239/95 136/240/95
f 129/236/96 123/241/96 139/231/96 128/234/96
f 119/237/97 130/221/97 173/224/97 172/242/97
f 123/241/98 124/228/98 115/227/98 146/243/98 113/232/98 137/229/98 139/231/98
f 142/218/99 120/222/99 130/221/99 114/219/99
f 130/221/100 119/237/100 122/211/100 145/215/100 114/219/100
f 129/236/101 148/180/101 152/197/101 144/244/101 143/245/101 116/205/101 117/208/101 124/228/101 123/241/101
f 138/233/102 125/246/102 147/247/102 149/248/102 141/235/102 140/230/102 137/229/102
f 132/249/103 164/125/103 165/124/103
f 131/213/104 163/127/104 164/126/104 132/225/104
f 121/192/105 162/131/105 163/127/105 131/213/105 133/212/105
f 127/201/106 132/249/106 165/124/106 160/97/106 112/202/106
f 97/250/107 158/133/107 157/132/107
f 96/160/108 97/169/108 157/135/108 156/134/108
f 86/129/109 98/161/109 96/160/109 156/134/109 155/130/109
f 92/146/110 77/145/110 153/34/110 158/133/110 97/250/110
f 183/152/111 184/251/111 152/197/111 109/196/111 108/195/111 81/149/111
f 174/252/112 175/15/112 5/14/112 32/67/112 33/66/112 76/65/112
f 170/59/113 186/140/113 7/50/113 25/55/113 23/54/113 24/53/113 8/52/113
f 180/141/114 187/189/114 84/184/114 100/183/114 99/182/114 101/181/114 83/128/114
f 167/80/115 174/252/115 76/65/115 68/120/115 67/119/115 40/77/115
f 172/242/116 189/138/116 118/137/116 136/240/116 134/239/116 135/238/116 119/237/116
f 184/251/117 185/206/117 116/205/117 143/245/117 144/244/117 152/197/117
f 179/253/118 171/254/118 189/255/118 172/256/118 173/257/118 190/258/118 191/259/118 185/260/118 184/261/118 183/262/118 182/263/118 181/264/118 188/265/118 187/266/118 180/267/118 186/268/118 170/269/118 169/270/118 166/271/118 176/272/118 175/273/118 174/274/118 167/275/118 168/276/118 177/277/118 178/278/118
f 171/139/119 179/117/119 43/114/119 59/113/119 58/112/119 60/111/119 42/110/119
